<svg xmlns="http://www.w3.org/2000/svg" xmlns:xlink="http://www.w3.org/1999/xlink" stroke-miterlimit="10" stroke-linecap="square" stroke="none" fill="none" viewBox="99.78740157480316 149.51524128790834 857.9547244094489 186.35232972116108" version="1.1" style="max-height: 500px" width="857.9547244094489" height="186.35232972116108"><clipPath id="p.0"><path clip-rule="nonzero" d="m0 0l1084.6456 0l0 437.71127l-1084.6456 0l0 -437.71127z"/></clipPath><g clip-path="url(#p.0)"><path fill-rule="evenodd" d="m0 0l1084.6456 0l0 437.71127l-1084.6456 0z" fill-opacity="0.0" fill="#000000"/><path fill-rule="evenodd" d="m363.1929 141.43307l616.31494 0l0 197.13385l-616.31494 0z" fill-opacity="0.0" fill="#000000"/><path fill-rule="nonzero" d="m376.30228 250.17058q0 -12.609375 4.765625 -22.140625q4.765625 -9.53125 12.96875 -14.65625q8.21875 -5.140625 18.34375 -5.140625q8.65625 0 15.171875 3.515625q6.53125 3.515625 10.046875 9.234375l0 -11.578125l25.078125 0l0 81.82811l-25.078125 0l0 -11.578125q-3.65625 5.71875 -10.1875 9.234375q-6.53125 3.515625 -15.1875 3.515625q-9.96875 0 -18.1875 -5.203125q-8.203125 -5.203125 -12.96875 -14.8125q-4.765625 -9.609375 -4.765625 -22.218735zm61.296875 0.140625q0 -9.375 -5.203125 -14.796875q-5.203125 -5.4375 -12.6875 -5.4375q-7.484375 0 -12.6875 5.359375q-5.203125 5.34375 -5.203125 14.734375q0 9.39061 5.203125 14.89061q5.203125 5.5 12.6875 5.5q7.484375 0 12.6875 -5.421875q5.203125 -5.4375 5.203125 -14.82811zm68.345245 -29.328125q3.671875 -5.71875 10.125 -9.234375q6.453125 -3.515625 15.09375 -3.515625q10.125 0 18.328125 5.140625q8.21875 5.125 12.984375 14.65625q4.765625 9.53125 4.765625 22.140625q0 12.60936 -4.765625 22.218735q-4.765625 9.609375 -12.984375 14.8125q-8.203125 5.203125 -18.328125 5.203125q-8.5 0 -15.03125 -3.515625q-6.515625 -3.515625 -10.1875 -9.09375l0 50.453125l-25.078125 0l0 -120.843735l25.078125 0l0 11.578125zm35.78125 29.1875q0 -9.390625 -5.203125 -14.734375q-5.203125 -5.359375 -12.828125 -5.359375q-7.484375 0 -12.6875 5.4375q-5.203125 5.421875 -5.203125 14.796875q0 9.39061 5.203125 14.82811q5.203125 5.421875 12.6875 5.421875q7.46875 0 12.75 -5.5q5.28125 -5.5 5.28125 -14.89061zm63.79834 -29.1875q3.671875 -5.71875 10.125 -9.234375q6.453125 -3.515625 15.09375 -3.515625q10.125 0 18.328125 5.140625q8.21875 5.125 12.984375 14.65625q4.765625 9.53125 4.765625 22.140625q0 12.60936 -4.765625 22.218735q-4.765625 9.609375 -12.984375 14.8125q-8.203125 5.203125 -18.328125 5.203125q-8.5 0 -15.03125 -3.515625q-6.515625 -3.515625 -10.1875 -9.09375l0 50.453125l-25.078125 0l0 -120.843735l25.078125 0l0 11.578125zm35.78125 29.1875q0 -9.390625 -5.203125 -14.734375q-5.203125 -5.359375 -12.828125 -5.359375q-7.484375 0 -12.6875 5.4375q-5.203125 5.421875 -5.203125 14.796875q0 9.39061 5.203125 14.82811q5.203125 5.421875 12.6875 5.421875q7.46875 0 12.75 -5.5q5.28125 -5.5 5.28125 -14.89061zm33.7359 0q0 -12.609375 4.765625 -22.140625q4.765625 -9.53125 12.96875 -14.65625q8.21875 -5.140625 18.34375 -5.140625q8.0625 0 14.734375 3.375q6.671875 3.359375 10.484375 9.078125l0 -37.984375l25.078125 0l0 108.531235l-25.078125 0l0 -11.734375q-3.515625 5.875 -10.046875 9.390625q-6.515625 3.515625 -15.171875 3.515625q-10.125 0 -18.34375 -5.203125q-8.203125 -5.203125 -12.96875 -14.8125q-4.765625 -9.609375 -4.765625 -22.218735zm61.296875 0.140625q0 -9.375 -5.203125 -14.796875q-5.203125 -5.4375 -12.6875 -5.4375q-7.484375 0 -12.6875 5.359375q-5.203125 5.34375 -5.203125 14.734375q0 9.39061 5.203125 14.89061q5.203125 5.5 12.6875 5.5q7.484375 0 12.6875 -5.421875q5.203125 -5.4375 5.203125 -14.82811zm120.407715 -1.3125q0 3.515625 -0.4375 7.3281097l-56.765625 0q0.59375 7.625 4.921875 11.65625q4.328125 4.03125 10.625 4.03125q9.390625 0 13.0625 -7.90625l26.6875 0q-2.046875 8.0625 -7.40625 14.515625q-5.359375 6.453125 -13.421875 10.125q-8.0625 3.65625 -18.03125 3.65625q-12.03125 0 -21.421875 -5.125q-9.375 -5.140625 -14.65625 -14.671875q-5.28125 -9.53125 -5.28125 -22.29686q0 -12.75 5.203125 -22.28125q5.203125 -9.53125 14.59375 -14.65625q9.390625 -5.140625 21.5625 -5.140625q11.875 0 21.109375 4.984375q9.25 4.984375 14.453125 14.21875q5.203125 9.234375 5.203125 21.5625zm-25.671875 -6.609375q0 -6.453125 -4.40625 -10.265625q-4.390625 -3.8125 -10.984375 -3.8125q-6.3125 0 -10.640625 3.671875q-4.3125 3.671875 -5.34375 10.40625l31.375 0zm75.68402 25.374985l17.75 -58.35936l26.6875 0l-29.046875 81.82811l-30.9375 0l-29.046875 -81.82811l26.84375 0l17.75 58.35936z" fill="#64c9cd"/><path fill-rule="evenodd" d="m221.07066 155.8817l112.83351 40.775574l-112.83351 40.775574l-112.83353 -40.775574z" fill="#a5e4e1"/><path fill-rule="evenodd" d="m217.84735 265.8591l-112.708855 -40.640976l0 -22.524002l112.708855 40.640976z" fill="#64c9cd"/><path fill-rule="evenodd" d="m224.1693 265.8591l112.70885 -40.640976l0 -22.524002l-112.70885 40.640976z" fill="#64c9cd"/><path fill-rule="evenodd" d="m217.84735 295.11185l-112.708855 -40.640976l0 -22.524002l112.708855 40.64099z" fill="#64c9cd"/><path fill-rule="evenodd" d="m224.1693 295.1114l112.70885 -40.64099l0 -22.524002l-112.70885 40.640976z" fill="#64c9cd"/><path fill-rule="evenodd" d="m217.90968 324.11725l-112.70885 -40.64099l0 -22.523987l112.70885 40.64096z" fill="#64c9cd"/><path fill-rule="evenodd" d="m224.23163 324.11725l112.70886 -40.64099l0 -22.523987l-112.70886 40.64096z" fill="#64c9cd"/></g></svg>